<?xml version="1.0" standalone="no"?>
<!DOCTYPE svg PUBLIC "-//W3C//DTD SVG 20010904//EN"
 "http://www.w3.org/TR/2001/REC-SVG-20010904/DTD/svg10.dtd">
<svg version="1.0" xmlns="http://www.w3.org/2000/svg"
 width="277.000000pt" height="277.000000pt" viewBox="0 0 277.000000 277.000000"
 preserveAspectRatio="xMidYMid meet">
<metadata>
Created by potrace 1.11, written by Peter Selinger 2001-2013
</metadata>
<g transform="translate(0.000000,277.000000) scale(0.100000,-0.100000)"
fill="#000000" stroke="none">
<path d="M1692 2441 c-20 -12 10 -39 51 -45 18 -3 138 -7 267 -9 208 -3 249
-7 359 -30 144 -31 191 -34 191 -12 0 18 -39 35 -79 35 -16 0 -64 8 -107 19
-145 34 -234 42 -434 39 -107 -1 -204 1 -215 5 -11 3 -26 3 -33 -2z"/>
<path d="M645 2320 c-27 -4 -117 -18 -200 -29 -150 -22 -215 -39 -269 -72 -26
-16 -27 -18 -9 -27 14 -8 42 -4 107 14 48 14 133 31 189 39 56 8 154 21 217
30 85 12 148 14 243 9 108 -6 127 -5 127 8 0 29 -48 38 -203 37 -84 -1 -174
-5 -202 -9z"/>
<path d="M1940 1980 c-177 -21 -258 -84 -263 -206 -4 -87 92 -193 213 -237 72
-26 255 -50 319 -42 152 18 262 66 332 142 46 50 82 124 83 170 1 36 -5 48
-37 81 -55 56 -129 76 -342 92 -154 11 -207 11 -305 0z m350 -50 c116 -8 149
-14 222 -42 41 -15 56 -73 34 -121 -41 -85 -148 -173 -250 -205 -66 -20 -282
-21 -351 -2 -78 22 -137 61 -172 115 -48 72 -42 138 15 198 43 45 208 81 327
71 28 -3 106 -9 175 -14z"/>
<path d="M2086 1779 c-31 -25 -33 -42 -6 -69 25 -25 62 -26 83 -2 23 26 21 58
-5 76 -29 21 -40 20 -72 -5z"/>
<path d="M387 1949 c-91 -26 -116 -40 -160 -88 -65 -72 -63 -180 5 -282 111
-166 334 -228 553 -153 25 8 75 35 111 60 52 37 71 58 96 108 43 84 50 184 18
250 -22 47 -56 78 -100 90 -54 15 -260 36 -355 35 -68 0 -122 -7 -168 -20z
m428 -39 c17 -5 49 -14 72 -20 58 -15 73 -45 73 -151 0 -76 -2 -86 -32 -128
-40 -59 -115 -111 -211 -146 -69 -25 -87 -27 -160 -23 -181 12 -317 135 -317
288 0 59 1 62 46 104 49 47 117 75 214 87 67 9 274 2 315 -11z"/>
<path d="M632 1718 c-19 -19 -14 -55 10 -72 32 -23 55 -20 74 9 25 38 6 75
-39 75 -18 0 -38 -5 -45 -12z"/>
<path d="M1227 1403 c-3 -5 -6 -69 -6 -143 -1 -147 -6 -199 -26 -305 -7 -38
-16 -104 -20 -145 -8 -87 2 -106 82 -159 52 -34 52 -35 73 -21 12 7 12 12 -4
29 -11 12 -23 21 -28 21 -5 0 -20 12 -33 28 -30 34 -31 67 -6 215 11 66 21
185 24 290 l6 178 -25 9 c-30 12 -32 12 -37 3z"/>
<path d="M1365 701 c-10 -17 4 -31 31 -31 19 0 25 5 22 18 -4 19 -43 29 -53
13z"/>
<path d="M1257 401 c-87 -12 -100 -60 -28 -105 67 -43 109 -50 202 -36 89 13
111 21 147 53 26 24 29 52 5 62 -74 30 -215 41 -326 26z"/>
</g>
</svg>
